<svg xmlns="http://www.w3.org/2000/svg" xmlns:xlink="http://www.w3.org/1999/xlink" width="500" zoomAndPan="magnify" viewBox="0 0 375 374.999991" height="500" preserveAspectRatio="xMidYMid meet" version="1.2"><defs><clipPath id="f7ec81f1bb"><path d="M 1 120.46875 L 374 120.46875 L 374 254.71875 L 1 254.71875 Z M 1 120.46875 "/></clipPath></defs><g id="e9a16387a1"><g clip-rule="nonzero" clip-path="url(#f7ec81f1bb)"><path style=" stroke:none;fill-rule:nonzero;fill:#ffffff;fill-opacity:1;" d="M 6.175781 238.210938 C 0.464844 234.328125 1.675781 229.734375 3.214844 225.351562 C 7.417969 213.199219 13.632812 202.261719 23.101562 193.3125 C 53.289062 164.832031 89.039062 146.339844 128.902344 136.085938 C 169.773438 125.566406 210.109375 127.878906 249.117188 144.679688 C 267.464844 152.59375 285.398438 161.515625 304.160156 170.285156 C 303.480469 168.242188 302.859375 165.632812 301.792969 163.175781 C 294.660156 146.429688 295.28125 142.488281 308.039062 129.269531 C 310.878906 126.308594 314.253906 123.875 318.21875 120.46875 C 320.347656 123.90625 321.945312 126.335938 323.398438 128.855469 C 339.054688 155.914062 354.234375 183.265625 370.660156 209.878906 C 374.625 216.339844 374.269531 221.320312 371.664062 226.800781 C 366.398438 237.828125 357.136719 245.710938 347.488281 252.496094 C 344.113281 254.867188 337.808594 254.097656 333.046875 253.414062 C 298.152344 248.289062 263.113281 246.421875 227.984375 249.234375 C 217.035156 250.125 206.234375 252.675781 194.394531 254.601562 C 193.09375 251.101562 195.253906 247.222656 197.324219 243.929688 C 207.0625 228.492188 218.898438 215.628906 238.3125 212.902344 C 247.488281 211.628906 256.632812 210.265625 265.808594 209.078125 C 269.890625 208.546875 274.035156 208.425781 279.09375 208.042969 C 260.359375 187.652344 178.03125 168.121094 136.273438 173.515625 C 85.488281 180.066406 42.398438 202.589844 6.175781 238.210938 Z M 6.175781 238.210938 "/></g></g></svg>