<svg xmlns="http://www.w3.org/2000/svg" xmlns:xlink="http://www.w3.org/1999/xlink" width="500" zoomAndPan="magnify" viewBox="0 0 375 374.999991" height="500" preserveAspectRatio="xMidYMid meet" version="1.0"><defs><g/><clipPath id="4493f6a3d7"><path d="M 0 2.386719 L 375 2.386719 L 375 375 L 0 375 Z M 0 2.386719 " clip-rule="nonzero"/></clipPath></defs><g clip-path="url(#4493f6a3d7)"><path fill="#2563eb" d="M 0 2.386719 L 375.523438 2.386719 L 375.523438 375 L 0 375 Z M 0 2.386719 " fill-opacity="1" fill-rule="nonzero"/></g><g fill="#ffffff" fill-opacity="1"><g transform="translate(100.85006, 309.63948)"><g><path d="M 75.828125 -236.25 C 98.804688 -236.25 116.09375 -230.921875 127.6875 -220.265625 C 139.28125 -209.617188 145.078125 -193.640625 145.078125 -172.328125 C 145.078125 -163.554688 143.457031 -154.890625 140.21875 -146.328125 C 136.976562 -137.765625 131.703125 -131.078125 124.390625 -126.265625 C 137.128906 -123.765625 147.050781 -116.976562 154.15625 -105.90625 C 161.257812 -94.832031 164.8125 -81.878906 164.8125 -67.046875 C 164.8125 -45.953125 158.175781 -29.503906 144.90625 -17.703125 C 131.644531 -5.898438 113.421875 0 90.234375 0 L 16.921875 0 L 16.921875 -236.25 Z M 62.984375 -137.859375 L 68.625 -137.859375 C 81.15625 -137.859375 89.875 -140.207031 94.78125 -144.90625 C 99.6875 -149.613281 102.140625 -157.609375 102.140625 -168.890625 C 102.140625 -178.910156 99.632812 -186.476562 94.625 -191.59375 C 89.613281 -196.71875 80.84375 -199.28125 68.3125 -199.28125 L 62.984375 -199.28125 Z M 62.984375 -36.96875 L 75.828125 -36.96875 C 91.078125 -36.96875 102.039062 -39.523438 108.71875 -44.640625 C 115.40625 -49.765625 118.75 -58.488281 118.75 -70.8125 C 118.75 -80.414062 116.554688 -87.410156 112.171875 -91.796875 C 107.785156 -96.191406 102.984375 -99.015625 97.765625 -100.265625 C 91.703125 -101.929688 83.34375 -102.765625 72.6875 -102.765625 L 62.984375 -102.765625 Z M 62.984375 -36.96875 "/></g></g></g><path stroke-linecap="butt" transform="matrix(0.75, 0.000000000000000083, -0.000000000000000083, 0.75, 0.0000045, 325.499979)" fill="none" stroke-linejoin="miter" d="M -0.000006 33.000031 L 515.36982 33.000031 " stroke="#eb2563" stroke-width="66" stroke-opacity="1" stroke-miterlimit="4"/></svg>