<svg xmlns="http://www.w3.org/2000/svg" xmlns:xlink="http://www.w3.org/1999/xlink" width="500" zoomAndPan="magnify" viewBox="0 0 375 374.999991" height="500" preserveAspectRatio="xMidYMid meet" version="1.0"><defs><g/></defs><g fill="#2563eb" fill-opacity="1"><g transform="translate(0.0000045, 236.989818)"><g><path d="M 37.421875 -116.59375 C 48.765625 -116.59375 57.296875 -113.960938 63.015625 -108.703125 C 68.734375 -103.453125 71.59375 -95.566406 71.59375 -85.046875 C 71.59375 -80.722656 70.796875 -76.445312 69.203125 -72.21875 C 67.609375 -67.988281 65.003906 -64.6875 61.390625 -62.3125 C 67.679688 -61.082031 72.578125 -57.734375 76.078125 -52.265625 C 79.585938 -46.804688 81.34375 -40.414062 81.34375 -33.09375 C 81.34375 -22.675781 78.066406 -14.554688 71.515625 -8.734375 C 64.972656 -2.910156 55.976562 0 44.53125 0 L 8.34375 0 L 8.34375 -116.59375 Z M 31.078125 -68.046875 L 33.859375 -68.046875 C 40.046875 -68.046875 44.347656 -69.203125 46.765625 -71.515625 C 49.191406 -73.835938 50.40625 -77.78125 50.40625 -83.34375 C 50.40625 -88.300781 49.164062 -92.039062 46.6875 -94.5625 C 44.21875 -97.082031 39.894531 -98.34375 33.71875 -98.34375 L 31.078125 -98.34375 Z M 31.078125 -18.25 L 37.421875 -18.25 C 44.953125 -18.25 50.363281 -19.507812 53.65625 -22.03125 C 56.957031 -24.5625 58.609375 -28.867188 58.609375 -34.953125 C 58.609375 -39.691406 57.523438 -43.144531 55.359375 -45.3125 C 53.191406 -47.476562 50.820312 -48.867188 48.25 -49.484375 C 45.257812 -50.304688 41.132812 -50.71875 35.875 -50.71875 L 31.078125 -50.71875 Z M 31.078125 -18.25 "/></g></g></g><g fill="#2563eb" fill-opacity="1"><g transform="translate(85.509829, 236.989818)"><g><path d="M 28.921875 -75.921875 L 28.921875 -34.171875 C 28.921875 -21.898438 33.039062 -15.765625 41.28125 -15.765625 C 49.53125 -15.765625 53.65625 -21.898438 53.65625 -34.171875 L 53.65625 -75.921875 L 75.3125 -75.921875 L 75.3125 -30.625 C 75.3125 -20.207031 72.523438 -12.085938 66.953125 -6.265625 C 61.390625 -0.441406 52.832031 2.46875 41.28125 2.46875 C 29.84375 2.46875 21.3125 -0.46875 15.6875 -6.34375 C 10.070312 -12.21875 7.265625 -20.3125 7.265625 -30.625 L 7.265625 -75.921875 Z M 28.921875 -75.921875 "/></g></g></g><g fill="#2563eb" fill-opacity="1"><g transform="translate(168.236336, 236.989818)"><g><path d="M 57.53125 -68.65625 L 57.53125 -75.921875 L 79.171875 -75.921875 L 79.171875 -3.859375 C 79.171875 10.460938 76.128906 21.4375 70.046875 29.0625 C 63.960938 36.695312 54.738281 40.515625 42.375 40.515625 C 31.957031 40.515625 23.113281 37.578125 15.84375 31.703125 C 8.582031 25.828125 4.640625 18.25 4.015625 8.96875 L 26.90625 8.96875 C 27.425781 12.988281 29.023438 16.207031 31.703125 18.625 C 34.378906 21.050781 37.78125 22.265625 41.90625 22.265625 C 47.675781 22.265625 51.722656 20.410156 54.046875 16.703125 C 56.367188 12.992188 57.53125 7.582031 57.53125 0.46875 L 57.53125 -7.578125 L 57.21875 -7.578125 C 54.945312 -4.484375 51.929688 -2.035156 48.171875 -0.234375 C 44.410156 1.566406 40.519531 2.46875 36.5 2.46875 C 26.394531 2.46875 18.171875 -1.316406 11.828125 -8.890625 C 5.484375 -16.472656 2.3125 -25.984375 2.3125 -37.421875 C 2.3125 -44.953125 3.832031 -51.910156 6.875 -58.296875 C 9.914062 -64.691406 14.144531 -69.640625 19.5625 -73.140625 C 24.976562 -76.648438 30.984375 -78.40625 37.578125 -78.40625 C 41.179688 -78.40625 44.8125 -77.523438 48.46875 -75.765625 C 52.132812 -74.015625 55.050781 -71.644531 57.21875 -68.65625 Z M 42.0625 -59.234375 C 37.113281 -59.234375 32.910156 -57.117188 29.453125 -52.890625 C 26.003906 -48.660156 24.28125 -43.660156 24.28125 -37.890625 C 24.28125 -32.210938 26.003906 -27.257812 29.453125 -23.03125 C 32.910156 -18.8125 37.164062 -16.703125 42.21875 -16.703125 C 47.164062 -16.703125 51.390625 -18.789062 54.890625 -22.96875 C 58.398438 -27.144531 60.15625 -32.117188 60.15625 -37.890625 C 60.15625 -43.765625 58.398438 -48.789062 54.890625 -52.96875 C 51.390625 -57.144531 47.113281 -59.234375 42.0625 -59.234375 Z M 42.0625 -59.234375 "/></g></g></g><g fill="#eb2563" fill-opacity="1"><g transform="translate(255.140613, 236.989818)"><g><path d="M 25.203125 -34.484375 C 25.203125 -28.191406 26.539062 -23.21875 29.21875 -19.5625 C 31.90625 -15.90625 35.566406 -14.078125 40.203125 -14.078125 C 43.816406 -14.078125 46.78125 -15.054688 49.09375 -17.015625 C 51.414062 -18.972656 53.300781 -21.445312 54.75 -24.4375 L 74.6875 -21.1875 C 72.007812 -13.457031 67.601562 -7.582031 61.46875 -3.5625 C 55.332031 0.457031 48.242188 2.46875 40.203125 2.46875 C 28.960938 2.46875 19.835938 -1.1875 12.828125 -8.5 C 5.816406 -15.820312 2.3125 -25.410156 2.3125 -37.265625 C 2.3125 -49.742188 5.609375 -59.71875 12.203125 -67.1875 C 18.804688 -74.664062 27.78125 -78.40625 39.125 -78.40625 C 50.46875 -78.40625 59.304688 -74.742188 65.640625 -67.421875 C 71.984375 -60.097656 75.15625 -49.738281 75.15625 -36.34375 L 75.15625 -34.484375 Z M 54.75 -47.9375 C 54.019531 -52.675781 52.316406 -56.410156 49.640625 -59.140625 C 46.960938 -61.878906 43.816406 -63.25 40.203125 -63.25 C 36.804688 -63.25 33.765625 -62.007812 31.078125 -59.53125 C 28.398438 -57.0625 26.648438 -53.195312 25.828125 -47.9375 Z M 54.75 -47.9375 "/></g></g></g><g fill="#eb2563" fill-opacity="1"><g transform="translate(332.609728, 236.989818)"><g><path d="M 32.015625 -101.59375 L 32.015625 -75.921875 L 45.3125 -75.921875 L 45.3125 -57.6875 L 32.015625 -57.6875 L 32.015625 0 L 10.359375 0 L 10.359375 -57.6875 L 2.9375 -57.6875 L 2.9375 -75.921875 L 10.359375 -75.921875 L 10.359375 -101.59375 Z M 32.015625 -101.59375 "/></g></g></g></svg>