<?xml version="1.0" encoding="UTF-8"?><svg id="Game_Insight" xmlns="http://www.w3.org/2000/svg" width="510" height="210" viewBox="0 0 510 210"><defs><style>.cls-1{fill:#191d20;stroke-width:0px;}</style></defs><path class="cls-1" d="m152.92,121.62c-8.42,0-16.85,0-25.27,0-1.34,0-1.4.07-1.28,1.41.3,3.56,1.11,7,3.12,10,3.47,5.16,8.57,7.36,14.61,7.59,3.65.14,7.21-.46,10.39-2.35,3.02-1.8,5.36-4.28,6.36-7.77.23-.79.72-.81,1.34-.81,4.79,0,9.58,0,14.37.02.59,0,1.18.04,1.76.06-.08.55-.13,1.1-.23,1.65-.58,2.91-1.79,5.57-3.3,8.11-3.46,5.82-8.54,9.75-14.69,12.31-4.59,1.91-9.45,2.6-14.41,2.62-3.78.02-7.51-.4-11.2-1.22-2.94-.66-5.71-1.8-8.4-3.16-4.2-2.12-7.71-5.09-10.58-8.78-2.53-3.25-4.38-6.88-5.53-10.87-1.28-4.44-1.9-8.96-1.78-13.57.13-5.18.93-10.23,2.9-15.07,2.2-5.41,5.51-9.98,10.11-13.56,3.28-2.55,6.92-4.4,10.93-5.61,6.2-1.88,12.45-2.08,18.81-1.22,6.19.84,11.82,2.99,16.7,6.92,3.67,2.95,6.6,6.53,8.61,10.83,3.23,6.9,3.99,14.16,3.17,21.65-.07.68-.38.86-1.04.86-8.49-.02-16.98-.01-25.47-.01v-.02Zm-8.53-12.25c5.45,0,10.89,0,16.34,0,.65,0,1.35.06,1.12-.96-1.61-7.22-5.34-11.35-12.21-13.25-4.15-1.15-8.35-.9-12.42.74-3.22,1.3-5.78,3.39-7.72,6.24-1.22,1.79-1.94,3.8-2.32,5.94-.2,1.18-.19,1.28.96,1.28,5.41,0,10.83,0,16.24,0Z"/><path class="cls-1" d="m290.03,154.38c-6.57.05-12.88-1.15-18.73-4.23-6.02-3.17-10.67-7.75-13.89-13.8-2.88-5.43-4.12-11.21-4.29-17.3-.12-4.18.22-8.3,1.25-12.35,1.6-6.28,4.67-11.79,9.41-16.21,3.92-3.66,8.5-6.31,13.71-7.82,6.42-1.85,12.91-2.18,19.51-1.3,5.22.69,10.09,2.35,14.53,5.14,4.51,2.83,8.13,6.58,10.84,11.2,2.65,4.51,4.06,9.4,4.69,14.56.48,3.99.4,7.95-.14,11.93-.46,3.4-1.33,6.67-2.68,9.79-2,4.64-4.96,8.61-8.78,11.93-2.75,2.39-5.85,4.19-9.17,5.6-4.17,1.77-8.58,2.56-13.09,2.84-1.05.07-2.11,0-3.17,0Zm19.54-36.16c.18-6.07-1.2-11.31-4.79-15.88-3.22-4.09-7.41-6.34-12.6-6.69-3.26-.22-6.5-.06-9.52,1.31-6.07,2.74-9.61,7.61-11.1,13.94-1.39,5.94-1.19,11.88,1.32,17.55,2.97,6.7,8.07,10.61,15.47,11.25,3.36.29,6.7,0,9.81-1.38,4.03-1.77,6.94-4.81,8.88-8.69,1.84-3.68,2.77-7.61,2.53-11.41Z"/><path class="cls-1" d="m108.79,153.57c-.84,0-1.42,0-2,0-6.05,0-12.09-.02-18.14.03-.95,0-1.56-.33-2.07-1.05-3.41-4.78-6.81-9.57-10.25-14.34-4.77-6.61-9.57-13.19-14.35-19.8-1.35-1.87-2.7-3.75-3.98-5.67-.31-.46-.54-1.09-.54-1.64-.03-4.13,0-8.25.02-12.38,0-1.71.3-1.99,2.04-1.99,5.48,0,10.97-.03,16.45.02,6.24.06,11.9-4.39,12.83-11.09.72-5.15-1.45-9.26-5.72-12.23-2.3-1.6-4.91-2.27-7.67-2.28-13.71-.02-27.42,0-41.13,0-.83,0-1.66-.09-2.47.01-.91.11-1.07-.28-1.07-1.06.02-4.29.02-8.58.02-12.88q0-1.68,1.66-1.68c15.2,0,30.4,0,45.6,0,4.5,0,8.77,1.03,12.77,3.08,6.27,3.22,10.81,8.1,13.48,14.59,2.46,5.99,2.75,12.17,1,18.43-1.93,6.89-6.13,12.12-11.94,16.11-2.34,1.61-4.92,2.83-7.72,3.44-1.83.4-3.68.73-5.53,1.06-.68.12-.64.43-.31.88,3.79,5.2,7.59,10.39,11.36,15.61,4,5.54,7.96,11.1,11.94,16.65,1.71,2.39,3.44,4.76,5.16,7.15.18.25.32.54.59,1.01Z"/><path class="cls-1" d="m432.34,117.69c0,11.49,0,22.98,0,34.47,0,1.46-.04,1.43-1.53,1.42-4.16-.03-8.33-.04-12.49,0-1.03.01-1.41-.41-1.55-1.34-.3-1.92-.65-3.84-1.01-5.75-.06-.32-.33-.61-.5-.91-.27.2-.59.35-.82.59-4.78,5.07-10.65,7.77-17.59,8.2-5.62.35-11.12-.25-16.29-2.52-4.87-2.13-8.46-5.73-10.97-10.45-2.68-5.04-3.72-10.48-4.01-16.09-.17-3.36-.1-6.73-.11-10.09-.02-9.74-.03-19.48-.04-29.22,0-1.06.1-2.12.03-3.17-.06-.93.28-1.21,1.19-1.2,4.72.04,9.45.02,14.17.03,2.09,0,2.09.01,2.09,2.13,0,12.12-.04,24.24.02,36.36.02,4.17.5,8.29,2.39,12.13,1.74,3.55,4.51,5.76,8.32,6.74,3.71.95,7.39.73,10.91-.64,3.17-1.24,5.52-3.56,7.2-6.53,2.06-3.64,3.08-7.58,3.11-11.73.07-12.35.07-24.7.09-37.05,0-1.42,0-1.41,1.42-1.41,4.99,0,9.98,0,14.97-.04.73,0,1.02.28,1.02.99,0,1.12.02,2.25.02,3.37,0,10.57,0,21.13,0,31.7h-.02Z"/><path class="cls-1" d="m253.65,81.75c-.5,1.39-.98,2.74-1.46,4.09-.73,2.01-1.45,4.02-2.19,6.03-.91,2.5-1.84,5-2.75,7.51-1.36,3.75-2.7,7.5-4.06,11.24-1.12,3.07-2.27,6.12-3.39,9.18-1.77,4.86-3.51,9.73-5.29,14.59-1.38,3.78-2.8,7.54-4.19,11.31-.87,2.35-1.72,4.7-2.55,7.07-.21.59-.51.81-1.15.81-6.38,0-12.75,0-19.13.04-.76,0-.95-.51-1.15-1.02-.88-2.34-1.73-4.69-2.59-7.04-.96-2.63-1.93-5.26-2.88-7.89-.96-2.63-1.9-5.27-2.85-7.89-1.54-4.21-3.09-8.41-4.62-12.63-.99-2.73-1.92-5.47-2.92-8.19-1.02-2.78-2.1-5.55-3.12-8.33-1.43-3.93-2.82-7.87-4.25-11.81-.73-2.01-1.49-4.01-2.25-6.01-.37-.98-.25-1.14.78-1.14,5.25.02,10.5.04,15.76,0,1.05,0,1.55.24,1.89,1.33.97,3.15,2.14,6.23,3.2,9.35,1.41,4.15,2.78,8.31,4.2,12.45,1.08,3.14,2.21,6.27,3.3,9.41,1.38,3.99,2.72,7.99,4.09,11.98.69,1.99,1.42,3.97,2.12,5.96.13.37.19.77.34,1.13.11.27.3.52.45.77.23-.25.55-.47.68-.77.29-.7.46-1.44.7-2.15,1.41-4.08,2.84-8.15,4.23-12.23,1.5-4.4,2.94-8.82,4.45-13.21,1.81-5.26,3.67-10.51,5.5-15.76.86-2.49,1.7-4.99,2.54-7.49.2-.59.52-.77,1.16-.77,5.61.02,11.23-.02,16.84-.03.12,0,.25.05.53.12Z"/><path class="cls-1" d="m443.7,100.06c0-12.45,0-24.89-.02-37.34,0-.77.27-.97.97-.97,5.19.01,10.37.01,15.56-.01.66,0,.87.24.87.87,0,5.94.02,11.88,0,17.82,0,.87.19,1.26,1.14,1.25,5.38-.04,10.77-.03,16.15-.06.84,0,.89.48.89,1.09,0,2.84.01,5.68.01,8.52,0,1.52-.03,3.04,0,4.56.02.76-.25,1.06-1.03,1.06-5.35-.03-10.7,0-16.05-.05-.91,0-1.1.32-1.1,1.17.01,9.8-.02,19.6-.02,29.41,0,1.91-.02,3.84.15,5.74.11,1.19.42,2.42.92,3.52.87,1.94,2.75,2.42,4.64,2.47,3.76.09,7.53.05,11.3,0,.94-.02,1.2.28,1.2,1.18-.03,4.23,0,8.45,0,12.68,0,1.28-.06,1.32-1.35,1.32-5.12,0-10.25.16-15.36-.05-4.19-.17-8.33-.74-11.92-3.34-3.19-2.3-5.06-5.37-6.07-9.09-.72-2.64-.85-5.33-.85-8.04,0-11.22,0-22.45,0-33.67h0Z"/><path class="cls-1" d="m336.83,104.61c0-16.01,0-32.02-.02-48.03,0-.82.2-1.06,1.05-1.05,5.12.04,10.24.03,15.36,0,.69,0,1.08.06,1.07.95-.04,9.01-.03,18.02-.03,27.04,0,7.63-.02,15.25-.02,22.88,0,11.03.02,22.05.03,33.08,0,4.36,0,8.71,0,13.07,0,.74-.24,1.06-1.04,1.05-5.15-.02-10.31-.02-15.46.02-.79,0-.95-.29-.95-.98,0-4.65-.01-9.31-.01-13.96,0-11.36,0-22.71,0-34.07h.01Z"/><path class="cls-1" d="m30.74,116.58c0-11.82,0-23.63,0-35.45,0-1.42,0-1.41,1.46-1.4,5.15,0,10.3.01,15.46-.03.91,0,1.24.3,1.24,1.19-.02,2.51.01,5.02.01,7.52,0,21.16,0,42.31,0,63.47,0,1.71-.02,1.69-1.7,1.69-5.22,0-10.43,0-15.65.05-.64,0-.82-.24-.81-.8.01-.73,0-1.45,0-2.18,0-11.35,0-22.71,0-34.06Z"/></svg>